<mxfile host="app.diagrams.net" modified="2023-04-26T12:26:01.794Z" agent="Mozilla/5.0 (Windows NT 10.0; Win64; x64) AppleWebKit/537.36 (KHTML, like Gecko) Chrome/112.0.0.0 Safari/537.36" etag="B8XqbcHoBn3Xbj0t6NEd" version="21.2.2" type="google">
  <diagram name="Pagina-1" id="SsywVYmS1-NVGxZVAfRM">
    <mxGraphModel grid="1" page="1" gridSize="10" guides="1" tooltips="1" connect="1" arrows="1" fold="1" pageScale="1" pageWidth="827" pageHeight="1169" math="0" shadow="0">
      <root>
        <mxCell id="0" />
        <mxCell id="1" parent="0" />
        <mxCell id="vNH3c-Nq7OhQOC2_sSxp-8" value="" style="edgeStyle=orthogonalEdgeStyle;rounded=0;orthogonalLoop=1;jettySize=auto;html=1;" edge="1" parent="1" source="vNH3c-Nq7OhQOC2_sSxp-1" target="vNH3c-Nq7OhQOC2_sSxp-4">
          <mxGeometry relative="1" as="geometry" />
        </mxCell>
        <mxCell id="vNH3c-Nq7OhQOC2_sSxp-1" value="Start" style="ellipse;whiteSpace=wrap;html=1;" vertex="1" parent="1">
          <mxGeometry x="340" width="120" height="80" as="geometry" />
        </mxCell>
        <mxCell id="vNH3c-Nq7OhQOC2_sSxp-9" value="" style="edgeStyle=orthogonalEdgeStyle;rounded=0;orthogonalLoop=1;jettySize=auto;html=1;" edge="1" parent="1" source="vNH3c-Nq7OhQOC2_sSxp-4" target="vNH3c-Nq7OhQOC2_sSxp-6">
          <mxGeometry relative="1" as="geometry" />
        </mxCell>
        <mxCell id="bN66akHMU6Hc3jk6IKNJ-1" style="edgeStyle=orthogonalEdgeStyle;rounded=0;orthogonalLoop=1;jettySize=auto;html=1;entryX=1;entryY=0.5;entryDx=0;entryDy=0;" edge="1" parent="1" source="vNH3c-Nq7OhQOC2_sSxp-4" target="vNH3c-Nq7OhQOC2_sSxp-10">
          <mxGeometry relative="1" as="geometry">
            <Array as="points">
              <mxPoint x="560" y="180" />
              <mxPoint x="560" y="400" />
            </Array>
          </mxGeometry>
        </mxCell>
        <mxCell id="vNH3c-Nq7OhQOC2_sSxp-4" value="int i = 0; i&amp;lt; 40;i++" style="shape=hexagon;perimeter=hexagonPerimeter2;whiteSpace=wrap;html=1;fixedSize=1;" vertex="1" parent="1">
          <mxGeometry x="295" y="140" width="210" height="80" as="geometry" />
        </mxCell>
        <mxCell id="BfPk-fM2pPiQLK1e1zVg-1" style="edgeStyle=orthogonalEdgeStyle;rounded=0;orthogonalLoop=1;jettySize=auto;html=1;" edge="1" parent="1" source="vNH3c-Nq7OhQOC2_sSxp-6" target="vNH3c-Nq7OhQOC2_sSxp-4">
          <mxGeometry relative="1" as="geometry">
            <mxPoint x="210" y="180" as="targetPoint" />
            <Array as="points">
              <mxPoint x="210" y="300" />
              <mxPoint x="210" y="180" />
            </Array>
          </mxGeometry>
        </mxCell>
        <mxCell id="vNH3c-Nq7OhQOC2_sSxp-6" value="print mazzo[i].toString()" style="shape=parallelogram;perimeter=parallelogramPerimeter;whiteSpace=wrap;html=1;fixedSize=1;" vertex="1" parent="1">
          <mxGeometry x="290" y="270" width="220" height="60" as="geometry" />
        </mxCell>
        <mxCell id="vNH3c-Nq7OhQOC2_sSxp-10" value="End" style="ellipse;whiteSpace=wrap;html=1;" vertex="1" parent="1">
          <mxGeometry x="340" y="360" width="120" height="80" as="geometry" />
        </mxCell>
        <mxCell id="vNH3c-Nq7OhQOC2_sSxp-15" value="" style="edgeStyle=orthogonalEdgeStyle;rounded=0;orthogonalLoop=1;jettySize=auto;html=1;" edge="1" parent="1" source="vNH3c-Nq7OhQOC2_sSxp-12" target="vNH3c-Nq7OhQOC2_sSxp-14">
          <mxGeometry relative="1" as="geometry" />
        </mxCell>
        <mxCell id="vNH3c-Nq7OhQOC2_sSxp-12" value="Start" style="ellipse;whiteSpace=wrap;html=1;" vertex="1" parent="1">
          <mxGeometry x="340" y="490" width="120" height="80" as="geometry" />
        </mxCell>
        <mxCell id="vNH3c-Nq7OhQOC2_sSxp-17" value="" style="edgeStyle=orthogonalEdgeStyle;rounded=0;orthogonalLoop=1;jettySize=auto;html=1;" edge="1" parent="1" source="vNH3c-Nq7OhQOC2_sSxp-14" target="vNH3c-Nq7OhQOC2_sSxp-16">
          <mxGeometry relative="1" as="geometry" />
        </mxCell>
        <mxCell id="vNH3c-Nq7OhQOC2_sSxp-14" value="return this.valore + &quot;di&quot; + this.seme" style="rounded=0;whiteSpace=wrap;html=1;" vertex="1" parent="1">
          <mxGeometry x="340" y="610" width="120" height="60" as="geometry" />
        </mxCell>
        <mxCell id="vNH3c-Nq7OhQOC2_sSxp-16" value="end" style="ellipse;whiteSpace=wrap;html=1;" vertex="1" parent="1">
          <mxGeometry x="340" y="710" width="120" height="80" as="geometry" />
        </mxCell>
        <mxCell id="vNH3c-Nq7OhQOC2_sSxp-18" value="stampa" style="text;html=1;align=center;verticalAlign=middle;resizable=0;points=[];autosize=1;strokeColor=none;fillColor=none;" vertex="1" parent="1">
          <mxGeometry x="90" y="38" width="60" height="30" as="geometry" />
        </mxCell>
        <mxCell id="vNH3c-Nq7OhQOC2_sSxp-19" value="toString" style="text;html=1;align=center;verticalAlign=middle;resizable=0;points=[];autosize=1;strokeColor=none;fillColor=none;" vertex="1" parent="1">
          <mxGeometry x="50" y="518" width="60" height="30" as="geometry" />
        </mxCell>
      </root>
    </mxGraphModel>
  </diagram>
</mxfile>
